HIERARCHY
ROOT Hips
{
 OFFSET 0.000000 0.000000 0.000000
 CHANNELS 6 Xposition Yposition Zposition Yrotation Xrotation Zrotation
 JOINT Chest
 {
  OFFSET 0.000000 13.173100 -0.061900
  CHANNELS 3 Yrotation Xrotation Zrotation
  JOINT Chest2
  {
   OFFSET 0.000000 8.040800 0.126200
   CHANNELS 3 Yrotation Xrotation Zrotation
   JOINT Chest3
   {
    OFFSET 0.000000 7.994400 0.000000
    CHANNELS 3 Yrotation Xrotation Zrotation
    JOINT Chest4
    {
     OFFSET 0.000000 7.986200 0.000000
     CHANNELS 3 Yrotation Xrotation Zrotation
     JOINT Neck
     {
      OFFSET 0.000000 12.259400 0.000000
      CHANNELS 3 Yrotation Xrotation Zrotation
      JOINT Head
      {
       OFFSET 0.000000 7.518700 0.267100
       CHANNELS 3 Yrotation Xrotation Zrotation
       End Site
       {
        OFFSET 0.000000 13.617700 0.141000
       }
      }
     }
     JOINT RightCollar
     {
      OFFSET -2.983800 8.314300 0.000000
      CHANNELS 3 Yrotation Xrotation Zrotation
      JOINT RightShoulder
      {
       OFFSET -16.133400 0.000000 0.000000
       CHANNELS 3 Yrotation Xrotation Zrotation
       JOINT RightElbow
       {
        OFFSET 0.000000 -29.822100 0.000000
        CHANNELS 3 Yrotation Xrotation Zrotation
        JOINT RightWrist
        {
         OFFSET 0.000000 -24.437700 0.010900
         CHANNELS 3 Yrotation Xrotation Zrotation
         End Site
         {
          OFFSET 0.000000 -18.312300 0.000000
         }
        }
       }
      }
     }
     JOINT LeftCollar
     {
      OFFSET 2.983800 8.314300 0.000000
      CHANNELS 3 Yrotation Xrotation Zrotation
      JOINT LeftShoulder
      {
       OFFSET 16.133400 0.000000 0.000000
       CHANNELS 3 Yrotation Xrotation Zrotation
       JOINT LeftElbow
       {
        OFFSET 0.000000 -29.822100 0.000000
        CHANNELS 3 Yrotation Xrotation Zrotation
        JOINT LeftWrist
        {
         OFFSET 0.000000 -24.437700 0.010900
         CHANNELS 3 Yrotation Xrotation Zrotation
         End Site
         {
          OFFSET 0.000000 -18.312300 0.000000
         }
        }
       }
      }
     }
    }
   }
  }
 }
 JOINT RightHip
 {
  OFFSET -11.206700 0.306200 0.030900
  CHANNELS 3 Yrotation Xrotation Zrotation
  JOINT RightKnee
  {
   OFFSET 0.000000 -57.334900 0.009400
   CHANNELS 3 Yrotation Xrotation Zrotation
   JOINT RightAnkle
   {
    OFFSET 0.000000 -43.376200 0.036600
    CHANNELS 3 Yrotation Xrotation Zrotation
    JOINT RightToe
    {
     OFFSET 0.000000 -10.035500 18.363100
     CHANNELS 3 Yrotation Xrotation Zrotation
     End Site
     {
      OFFSET 0.000000 -1.618500 7.239000
     }
    }
   }
  }
 }
 JOINT LeftHip
 {
  OFFSET 11.206700 0.306200 0.030900
  CHANNELS 3 Yrotation Xrotation Zrotation
  JOINT LeftKnee
  {
   OFFSET 0.000000 -57.334900 0.009400
   CHANNELS 3 Yrotation Xrotation Zrotation
   JOINT LeftAnkle
   {
    OFFSET 0.000000 -43.376200 0.036600
    CHANNELS 3 Yrotation Xrotation Zrotation
    JOINT LeftToe
    {
     OFFSET 0.000000 -10.035500 18.363100
     CHANNELS 3 Yrotation Xrotation Zrotation
     End Site
     {
      OFFSET 0.000000 -1.618500 7.239000
     }
    }
   }
  }
 }
}
MOTION
Frames: 6
Frame Time: 0.008333
-94.553503 64.817632 93.055597 173.870413 -39.962687 -3.035415 3.126261 21.710060 1.962642 0.384071 2.983860 0.353007 0.631087 4.889566 0.608506 2.740544 18.393336 2.622524 0.405580 16.780912 0.063282 0.728838 -4.656450 -0.034219 -4.063468 0.833391 -1.191585 -8.252058 1.751955 2.110740 -119.600937 -74.477469 129.640844 14.881237 18.549346 38.030273 -4.275277 3.032313 -0.710921 11.645299 -5.468411 3.610462 94.420519 -64.451404 -113.977482 -23.781390 21.696223 -65.412378 -2.857674 -41.154484 3.079208 -127.995744 84.972794 -123.886719 -0.445056 -10.511787 -0.964760 0.305383 -0.636029 0.131773 -3.228736 -37.714110 4.954074 71.077932 83.418165 60.429424 -5.480163 -12.201656 8.850562 0.520991 1.083117 0.323652
-94.567948 64.816922 93.059456 173.893031 -39.927241 -3.000269 3.085771 21.705423 1.923291 0.382562 2.973530 0.345981 0.631018 4.912249 0.617048 2.735744 18.394690 2.618650 0.383331 16.777609 0.034181 0.701586 -4.683481 -0.091045 -4.055675 0.760630 -1.228089 -8.313387 1.817686 2.001345 -119.421747 -74.134121 129.655342 15.443296 18.633136 39.960178 -4.280792 3.005413 -0.698549 11.689915 -5.510053 3.708238 94.618039 -64.172119 -114.602566 -24.408405 21.637697 -67.483067 -2.822684 -41.187763 3.012622 -127.686309 84.939538 -123.602444 -0.436839 -10.497558 -0.880081 0.317956 -0.650356 0.103609 -3.210411 -37.743742 4.898750 70.870435 83.394676 60.201520 -5.491442 -12.158683 8.862081 0.524207 1.062030 0.320302
-94.577006 64.818326 93.061097 173.928847 -39.905822 -2.994331 3.047038 21.713049 1.906005 0.379802 2.980100 0.348633 0.630351 4.908271 0.612173 2.731002 18.392110 2.615200 0.359127 16.784316 0.008027 0.673390 -4.716884 -0.152641 -4.048523 0.696123 -1.259258 -8.351591 1.879091 1.919223 -119.172181 -73.801047 129.594077 15.970830 18.664494 41.851372 -4.290668 2.990882 -0.681288 11.737714 -5.544804 3.801160 94.778615 -63.840525 -115.212130 -24.994638 21.586165 -69.446965 -2.701771 -41.202067 2.920693 -127.359270 84.901240 -123.226535 -0.445368 -10.495784 -0.824610 0.336924 -0.654806 0.112599 -3.217104 -37.757891 4.873656 70.709491 83.383868 60.027483 -5.511901 -12.134554 8.863158 0.534443 1.053927 0.327765
-94.585483 64.820221 93.061257 173.957949 -39.891154 -2.984074 3.015443 21.727236 1.887894 0.377632 2.983344 0.351087 0.628407 4.888334 0.600709 2.723592 18.432923 2.629099 0.348760 16.749889 -0.021302 0.630657 -4.743673 -0.222601 -4.045194 0.603922 -1.294429 -8.356628 1.929916 1.890728 -118.848839 -73.482871 129.465848 16.472125 18.644261 43.698965 -4.300174 2.948192 -0.672644 11.783581 -5.572245 3.888235 94.909157 -63.453505 -115.811621 -25.554347 21.553817 -71.308979 -2.605197 -41.212126 2.854565 -127.098681 84.871419 -122.944503 -0.473352 -10.485479 -0.766756 0.361727 -0.667342 0.115783 -3.214683 -37.765930 4.844209 70.570073 83.368385 59.879411 -5.532999 -12.107940 8.867878 0.541246 1.042466 0.329540
-94.592389 64.821618 93.061130 173.977897 -39.876939 -2.973286 2.994597 21.741651 1.875146 0.373882 2.988676 0.352770 0.625868 4.895524 0.602559 2.712669 18.445244 2.633143 0.337351 16.714017 -0.054875 0.582445 -4.778710 -0.295216 -4.034277 0.453921 -1.368619 -8.363982 2.041998 1.888716 -118.384848 -73.110419 129.232674 16.942458 18.588161 45.495467 -4.307498 2.902152 -0.676009 11.819576 -5.592178 3.977097 95.022303 -63.019679 -116.412536 -26.063621 21.539057 -73.058988 -2.533454 -41.222718 2.811150 -126.871106 84.847048 -122.714734 -0.497766 -10.470196 -0.707860 0.377657 -0.681688 0.127715 -3.203416 -37.774257 4.818553 70.443248 83.358493 59.750308 -5.551901 -12.087678 8.870818 0.562688 1.025862 0.322590
-94.601750 64.821975 93.060541 174.013950 -39.859220 -2.962032 2.957300 21.753675 1.851168 0.375879 3.024253 0.366327 0.619783 4.871915 0.590799 2.702864 18.458415 2.635797 0.310037 16.688498 -0.095006 0.540450 -4.831064 -0.362616 -4.025571 0.348629 -1.415225 -8.363309 2.138832 1.755943 -117.756969 -72.575273 128.860413 17.366931 18.507720 47.237134 -4.308869 2.852359 -0.686917 11.839331 -5.603585 4.075640 95.119293 -62.548051 -117.010210 -26.510909 21.519947 -74.691035 -2.501122 -41.236538 2.778531 -126.660441 84.816667 -122.560610 -0.474604 -10.458162 -0.605717 0.342108 -0.695148 0.131475 -3.184952 -37.785244 4.775458 70.297237 83.348530 59.603903 -5.567018 -12.076872 8.859000 0.574830 1.022224 0.342550
